<!--?xml version="1.0" encoding="utf-8"?-->
<!-- Generator: Adobe Illustrator 18.1.1, SVG Export Plug-In . SVG Version: 6.00 Build 0)  -->

<svg version="1.1" id="_x32_" xmlns="http://www.w3.org/2000/svg" xmlns:xlink="http://www.w3.org/1999/xlink" x="0px" y="0px" viewBox="0 0 512 512" style="width: 64px; height: 64px; opacity: 1;" xml:space="preserve">
<style type="text/css">
	.st0{fill:#4B4B4B;}
</style>
<g>
	<path class="st0" d="M210.287,99.641h-57.062c-36.544,0-67.206,24.836-76.237,58.531H0v40.972h76.988
		c9.039,33.686,39.701,58.522,76.237,58.522h57.062v-38.588h43.025v-80.84h-43.025V99.641z" style="fill: rgb(255, 255, 255);"></path>
	<path class="st0" d="M435.005,158.172c-9.032-33.694-39.686-58.531-76.23-58.531h-57.062v158.025h57.062
		c36.544,0,67.19-24.836,76.23-58.522H512v-40.972H435.005z" style="fill: rgb(255, 255, 255);"></path>
	<polygon class="st0" points="151.445,347.466 89.276,347.466 89.276,365.166 89.276,382.865 151.445,382.865 151.445,412.359 
		218.758,365.166 151.445,317.973 	" style="fill: rgb(255, 255, 255);"></polygon>
	<polygon class="st0" points="360.559,317.973 293.246,365.166 360.559,412.359 360.559,382.865 422.728,382.865 422.728,365.166 
		422.728,347.466 360.559,347.466 	" style="fill: rgb(255, 255, 255);"></polygon>
</g>
</svg>
