<!--?xml version="1.0" encoding="utf-8"?-->
<!-- Generator: Adobe Illustrator 18.1.1, SVG Export Plug-In . SVG Version: 6.00 Build 0)  -->

<svg version="1.1" id="_x32_" xmlns="http://www.w3.org/2000/svg" xmlns:xlink="http://www.w3.org/1999/xlink" x="0px" y="0px" viewBox="0 0 512 512" style="width: 48px; height: 48px; opacity: 1;" xml:space="preserve">
<style type="text/css">
	.st0{fill:#4B4B4B;}
</style>
<g>
	<path class="st0" d="M417.792,180.463h-231.55c-7.711,0-13.942,6.231-13.942,13.924v3.493c0,7.693,6.231,13.924,13.942,13.924
		h231.55c7.693,0,13.924-6.232,13.924-13.924v-3.493C431.716,186.695,425.485,180.463,417.792,180.463z" style="fill: rgb(255, 255, 255);"></path>
	<path class="st0" d="M302.003,169.894c10.092,0,18.29-8.19,18.29-18.281c0-10.092-8.198-18.281-18.29-18.281
		c-10.092,0-18.281,8.189-18.281,18.281C283.722,161.704,291.911,169.894,302.003,169.894z" style="fill: rgb(255, 255, 255);"></path>
	<path class="st0" d="M473.416,247.741l2.353-77.021l0.376-20.872c0.184-7.032,0.028-15.257-0.818-22.95
		c-1.663-15.643-5.809-31.388-13.051-46.047c-14.09-29.963-42.389-51.737-71.424-62.628c-29.292-11.277-59.548-14.503-88.84-14.77
		c-29.301,0.266-59.558,3.493-88.85,14.788c-29.025,10.872-57.334,32.646-71.433,62.609c-7.242,14.66-11.397,30.404-13.033,46.047
		c-0.872,7.693-1.011,15.919-0.826,22.95l0.376,20.872l2.214,72.325c-12.15,13.98-21.957,29.531-29.116,46.185
		c-19.338-19.099-30.175-39.448-32.206-45.955c-3.603-11.599-3.603-21.552-10.818-21.552s-18.943,0-38.786,0
		c-19.843,0-21.645,4.981-18.042,11.599c3.612,6.646,26.158,39.788,46.902,94.466c19.558,51.571,45.872,83.28,57.048,96.947
		c17.519,34.898,47.224,64.181,84.531,83.813h220.134C471.127,476.434,512,418.603,512,352.391
		C512,313.375,497.552,277.411,473.416,247.741z M162.207,170.72l0.386-20.872c0.074-6.866,0.405-12.582,1.277-18.667
		c1.683-11.986,5.23-23.428,10.69-33.548c10.864-20.293,29.384-35.184,52.325-43.602c22.876-8.566,48.933-11.416,75.127-11.287
		c26.185-0.129,52.26,2.721,75.118,11.287c22.941,8.418,41.461,23.309,52.325,43.602c5.46,10.12,9.007,21.562,10.698,33.548
		c0.864,6.085,1.195,11.802,1.269,18.667l0.376,20.872l1.783,58.217H160.433L162.207,170.72z" style="fill: rgb(255, 255, 255);"></path>
</g>
</svg>
